<?xml version="1.0"?>
<svg id="_Слой_1" data-name="Слой 1" xmlns="http://www.w3.org/2000/svg" viewBox="0 0 647.5 222.73">
  <defs></defs>
  <path class="cls-1" d="m21.2,154.69c-3.54,5.22-21,28.95-21.2,33.27,7.98,7.97,29.59,16.99,43.72,20.71,31.99,8.42,83.43,6.06,104.9-16.99,9.68-10.4,17.84-28.5,12.02-47.57-10.55-34.58-58.53-35.57-87.01-42.96-8.49-2.2-18.51-5.57-15.22-16.24,4.42-14.31,37.78-10.54,52.22-5.54,27.72,9.58,16.58,18.97,34.96-5.52,2.64-3.52,10.81-13.55,11.34-16.91-27.57-28.11-117.61-25.71-143.33,18.89-10.04,16.58-3.66,37.31,6.95,47.51,25.55,24.57,89.19,17.05,92.42,37.16,2.93,18.21-31.18,17.67-46.32,14.58-9.78-1.99-16.39-4.8-24.34-8.5-10.31-4.79-15.79-11.01-21.11-11.9h0Zm302.37,29.89l11.07-22.66c74-8.89,88.33,28.87,133.11,39.13,44.28,10.14,103.8-7.08,115.88-51.63l3.86,2.91c.13-8.78,3.24-17.21,4.78-26.14.16-.06.45-.27.51-.13.1.27.38-.07.99-.26.08-.03.4-.12.48-.14l.9-.36c-1.57-5.62-1.37-9.73-2.29-15.66-.25-1.58-1.41-6.53-1.2-7.6l.48-1.13c1.15-2.29,2.57.39.59-3.48-2-3.93-4.11-8.92-6.07-12.56-4-7.42-6.35-8.59-7.98-11.42l3.06.39c-.86-1.87-1.9-4.24-3.19-7.17-1.29-2.93-3.38-7.75-5.16-12.13-10.07-5.88-19.78-8.78-30.12-10.65-13.89-2.5-70.73-3.92-84.79-1.96l-.45,152.15c-3.18-3.83-7.19-14.67-9.72-20.01l-47.94-102.12c-17.1-36.06-11.16-30.43-31.43-30.46-4.62,0-11.36-.38-15.72-.02-6.07.51-5.92,3.08-7.77,7.26l-29.22,61.17c-2.54,5.28-18.53,38.13-29.16,60.69l36.53,13.91-7.61,15.85c-22.49,3.34-32.24,6.12-48.65,12.82l.1.38-.35.12,19.98-43.07,36.53,13.91-.04.08h0Zm178.66-87.24l.08-18.05c18.64-.45,34.89.27,47.74,8.49,9.5,6.07,18.85,17.38,19.7,32.96.89,16.32-5.74,28.81-15.83,36.62-14.49,11.21-31.31,11.23-51.86,10.87l.17-70.89h0Zm-156.97,43.31c1.5-7.14,17.61-38.55,21.67-46.12,3.05,3.54,19.8,39.99,21.88,46.16l-43.54-.04h0Zm-169.38-55.6c.04-8.07.43-16.13.77-24.2.17-3.93.48-7.73.59-11.64.17-6.26-1.22-8.17,5.38-8.16,18.27.03,128.27-.68,138.83.78.44,3.34-10.79,28.31-12.98,32.16-2.58,4.52-5.76,3.55-12.18,3.53l-76.08-.02-.24,33.67c4.39-4.45,6.73-4.42,15.45-4.4,19.03,0,38.1-.38,57.11.53l-14.24,33.23c-11.99,2.63-43.17-.32-58.18.68-1.32,25.19-.22,46.41-.15,72.32-14.61.72-29.8-.88-43.93-4.8.01-43.63-.25-79.65-.15-123.7Z"></path>
  <path class="cls-1" d="m320.93,199.23c14.96-4.9,26.93-12.13,46.69-12.71,15.35-.45,31.17,2.94,43.87,7.65,27.14,10.05,41.99,21.41,75.44,26.12,32.58,4.58,61.64,3.06,90.13-7.54,20.7-7.7,47.64-24.76,56.95-43.34-3,.68-8.38,3.41-12.92,4.65-5.24,1.44-9.91,1.57-14.96,3.34-9.37,3.28-13.65,9.8-20.42,15.42-8.47,7.02-34.79,20.54-51.98,19.6,3.84.09,17.14-5.55,21.17-7.43,14.17-6.59,24.56-14.28,34.26-25.16,5.11-5.72,1.98-14.82-2.79-20.37-3.79,4.3-8.01,31.12-49.1,44.57-26.46,8.66-57.12,10.08-83.98.34-33.24-12.06-56.67-37.84-113.87-33.6-5.15.38-5.64-.12-7.59,3.78l-10.89,24.68h0ZM587.06,45.58c-4.67-7.17-10.38-16.28-15.07-25.31-5.04-9.7-8.91-19.32-9.05-20.2-.13-.88,3.48,6.98,6.81,13.62,3.33,6.65,6.37,12.08,9.65,17.48,3.09,5.1,6.4,10.17,8.78,13.65,22.76,3.58,31.87,18.14,27.79,41.65-17.47-7.24-29.35-24.61-28.91-40.9h0Zm-1.85,31.88c2.31,5.26,10,19.05,11.83,21.53,4.38,5.91,11.63,9.58,21.46,12.64-.19-19.43-11.09-30.5-29.3-34.66-1.2-.95-2.3-2.08-3.24-3.27-1.4-1.75-2.46-3.61-4.34-7.62-1.88-4.01-4.59-10.17-7.04-16.32-2.45-6.15-4.66-12.29-6.95-19.73-2.29-7.44-4.67-16.19-4.68-15.25-.02.93,2.32,11.54,5.85,22.43,3.53,10.89,8.25,22.07,11.98,30.53,1.67,3.78,3.13,7.02,4.43,9.73h0Zm46.94-7.8l-.03-.07c-1.24-2.75-2.84-5.47-4.84-8.13l-.02.05c-1.44-2.17-3.13-4.65-5.08-7.45-5.05-7.24-11.83-16.63-18.96-24.92-7.13-8.28-14.62-15.46-15.39-15.9-.77-.45,5.18,5.83,10.12,11.39,4.93,5.56,8.85,10.4,12.65,15.46,3.8,5.05,7.48,10.32,9.82,13.84,2.34,3.53,3.33,5.31,4.06,7.32.61,1.68,1.04,3.51,1.15,5.29-3.07,9.18-2.72,6.41-6.44,16.49-2.87,7.77.41,18.44,2.73,27.72,11.59-7.91,16.91-23.53,11.17-38.84-.2-.65-.51-1.39-.93-2.25h0Zm-30.75,103.31c-7.54-7.19-10.72-13.62-11.14-20.76-.19-3.3,3.01-20.29,4.2-23.89,18.11,12.54,20.3,26.42,6.94,44.65h0Zm13.56-32.42c-8.41-4.54-13.11-9.48-15.86-15.71-1.28-2.89-4.51-18.75-4.79-22.25,18.59,6.71,25.04,18.51,20.65,37.96h0Zm3.49.73c1.19-10.65,1.89-23.1,8.01-30.44,9.14-10.96,5.82-5.54,17.12-20.32,7.42,23.83-6.09,45.08-25.13,50.76h0Zm-12.44,31.86c2.66-7.17,11-24.55,15.05-28.21,3.02-2.73,8.6-5.82,13.35-8.68,4.61-2.78,7.9-6.6,12.4-8.34,4.63,24.02-15.27,48.16-40.8,45.22Z"></path>
</svg>